<?xml version="1.0" encoding="iso-8859-1"?>

<!-- Generator: Adobe Illustrator 19.0.0, SVG Export Plug-In . SVG Version: 6.00 Build 0)  -->
<svg xmlns="http://www.w3.org/2000/svg">
  <!-- ENVELOPE; Source: https://www.svgrepo.com/svg/209204/email-mail; License: CC0 -->
  <symbol id="i-envelope" viewBox="0 0 512 512" style="enable-background:new 0 0 512 512;" xml:space="preserve">
		<path d="M425.367,72.125H86.633C38.752,72.125,0,111.131,0,158.759v194.482
			c0,47.839,38.98,86.633,86.633,86.633h338.734c47.741,0,86.633-38.888,86.633-86.633V158.759
			C512,111.069,473.187,72.125,425.367,72.125z M425.367,110.411c9.804,0,18.928,2.942,26.556,7.976l-184.231,120.58
			c-7.102,4.649-16.282,4.649-23.386,0l-184.23-120.58C76.732,107.394,58.236,110.411,425.367,110.411z M39.03,150.368
			l126.776,82.975L38.286,350.222C38.286,142.169,37.967,156.414,39.03,150.368z M425.367,401.589H86.633
			c-12.865,0-24.563-5.061-33.235-13.284l145.463-133.326c59.59,39.003,66.629,31.186,114.278,0l145.463,133.326
			C449.931,396.528,438.232,401.589,425.367,401.589z M473.716,350.222l-127.52-116.879l126.776-82.975
			C474.035,156.414,473.716,142.206,473.716,350.222z"/>
  </symbol>

  <!-- twitter icon; Source: https://www.svgrepo.com/svg/107798/twitter; License: CC0 -->
<symbol id="i-twitter" viewBox="0 0 310 310" style="enable-background:new 0 0 310 310;" xml:space="preserve">
	<path d="M302.973,57.388c-4.87,2.16-9.877,3.983-14.993,5.463c6.057-6.85,10.675-14.91,13.494-23.73
		                       c0.632-1.977-0.023-4.141-1.648-5.434c-1.623-1.294-3.878-1.449-5.665-0.39c-10.865,6.444-22.587,11.075-34.878,13.783
		                       c-12.381-12.098-29.197-18.983-46.581-18.983c-36.695,0-66.549,29.853-66.549,66.547c0,2.89,0.183,5.764,0.545,8.598
		                       C101.163,99.244,58.83,76.863,29.76,41.204c-1.036-1.271-2.632-1.956-4.266-1.825c-1.635,0.128-3.104,1.05-3.93,2.467
		                       c-5.896,10.117-9.013,21.688-9.013,33.461c0,16.035,5.725,31.249,15.838,43.137c-3.075-1.065-6.059-2.396-8.907-3.977
		                       c-1.529-0.851-3.395-0.838-4.914,0.033c-1.52,0.871-2.473,2.473-2.513,4.224c-0.007,0.295-0.007,0.59-0.007,0.889
		                       c0,23.935,12.882,45.484,32.577,57.229c-1.692-0.169-3.383-0.414-5.063-0.735c-1.732-0.331-3.513,0.276-4.681,1.597
		                       c-1.17,1.32-1.557,3.16-1.018,4.84c7.29,22.76,26.059,39.501,48.749,44.605c-18.819,11.787-40.34,17.961-62.932,17.961
		                       c-4.714,0-9.455-0.277-14.095-0.826c-2.305-0.274-4.509,1.087-5.294,3.279c-0.785,2.193,0.047,4.638,2.008,5.895
		                       c29.023,18.609,62.582,28.445,97.047,28.445c67.754,0,110.139-31.95,133.764-58.753c29.46-33.421,46.356-77.658,46.356-121.367
		                       c0-1.826-0.028-3.67-0.084-5.508c11.623-8.757,21.63-19.355,29.773-31.536c1.237-1.85,1.103-4.295-0.33-5.998
		                       C307.394,57.037,305.009,56.486,302.973,57.388z"/>
  </symbol>
<!-- telegram icon; Source: https://www.svgrepo.com/svg/11380/telegram-logo License: CC0 -->
  <symbol id="i-tg" viewBox="0 0 189.473 189.473" style="enable-background:new 0 0 189.473 189.473;" xml:space="preserve">
    <path d="M152.531,179.476c-1.48,0-2.95-0.438-4.211-1.293l-47.641-32.316l-25.552,18.386c-2.004,1.441-4.587,1.804-6.914,0.972
             c-2.324-0.834-4.089-2.759-4.719-5.146l-12.83-48.622L4.821,93.928c-2.886-1.104-4.8-3.865-4.821-6.955
             c-0.021-3.09,1.855-5.877,4.727-7.02l174.312-69.36c0.791-0.336,1.628-0.53,2.472-0.582c0.302-0.018,0.605-0.018,0.906-0.001
             c1.748,0.104,3.465,0.816,4.805,2.13c0.139,0.136,0.271,0.275,0.396,0.42c1.11,1.268,1.72,2.814,1.835,4.389
             c0.028,0.396,0.026,0.797-0.009,1.198c-0.024,0.286-0.065,0.571-0.123,0.854L159.898,173.38c-0.473,2.48-2.161,4.556-4.493,5.523
             C154.48,179.287,153.503,179.476,152.531,179.476z M104.862,130.579l42.437,28.785L170.193,39.24l-82.687,79.566l17.156,11.638
             C104.731,130.487,104.797,130.533,104.862,130.579z M69.535,124.178l5.682,21.53l12.242-8.809l-16.03-10.874
             C70.684,125.521,70.046,124.893,69.535,124.178z M28.136,86.782l31.478,12.035c2.255,0.862,3.957,2.758,4.573,5.092l3.992,15.129
             c0.183-1.745,0.974-3.387,2.259-4.624L149.227,38.6L28.136,86.782z"/>
  </symbol>

  <!-- Key icon; Source: https://www.svgrepo.com/svg/19311/key License: CC0 -->
  <symbol id="i-key" viewBox="0 0 212.852 212.852" style="enable-background:new 0 0 212.852 212.852;" xml:space="preserve">
    <path d="M192.162,23.09C178.799,9.726,161.031,2.367,142.133,2.367c-18.899,0-36.667,7.359-50.03,20.724
	           c-22.74,22.739-26.716,57.225-11.968,84.095l-19.938,19.938c-0.335-0.414-0.69-0.815-1.072-1.197l-14.15-14.15
	           c-2.849-2.849-6.637-4.418-10.666-4.418c-4.028,0-7.816,1.568-10.666,4.418c-5.882,5.882-5.882,15.451,0,21.333l14.15,14.151
	           c0.382,0.381,0.782,0.736,1.196,1.071l-5.405,5.405l-7.833-7.833c-2.849-2.85-6.637-4.419-10.666-4.419
	           c-4.03,0-7.818,1.569-10.666,4.419C1.569,148.751,0,152.539,0,156.569s1.569,7.817,4.419,10.666l7.86,7.861
	           c-7.666,8.251-7.507,21.189,0.521,29.22c3.979,3.979,9.271,6.17,14.897,6.17s10.918-2.191,14.897-6.171l67.895-67.895
	           c9.704,4.863,20.471,7.453,31.642,7.453c18.898,0,36.666-7.359,50.029-20.724C219.749,95.563,219.749,50.676,192.162,23.09z
	           M160.343,91.329c-10.057,10.057-26.363,10.057-36.42,0s-10.057-26.363,0-36.42s26.363-10.057,36.42,0S170.4,81.272,160.343,91.329z
	           "/>
    </symbol>

  <!-- Keybase icon. Source: https://www.svgrepo.com/svg/306295/keybase License: CC0 (?)-->
  <symbol id="i-keybase" width="24px" height="24px" viewBox="0 0 24 24" style="enable-background:new 0 0 24 24">
    <path d="M10.446 21.371c0 .528-.428.953-.954.953-.525 0-.954-.425-.954-.953 0-.526.428-.954.953-.954.524 0 .951.431.951.955m5.922-.001c0 .528-.428.953-.955.953-.526 0-.952-.425-.952-.953 0-.526.423-.954.949-.954s.954.431.954.955M20.904 12.213l-.156-.204c-.046-.06-.096-.116-.143-.175-.045-.061-.094-.113-.141-.169-.104-.12-.209-.239-.319-.359l-.076-.08-.091-.099-.135-.131c-.015-.018-.032-.034-.05-.053-1.16-1.139-2.505-1.986-3.955-2.504l-.23-.078c.012-.027.024-.055.035-.083.41-1.064.367-2.223-.12-3.255-.491-1.035-1.356-1.8-2.438-2.16-.656-.216-1.23-.319-1.711-.305-.033-.105-.1-.577.496-1.848L10.663 0l-.287.399c-.33.455-.648.895-.945 1.328-.328-.345-.766-.552-1.245-.58L6.79 1.061h-.012c-.033-.003-.07-.003-.104-.003-.99 0-1.81.771-1.87 1.755l-.088 1.402v.003c-.061 1.029.727 1.915 1.755 1.979l1.002.061c-.065.84.073 1.62.405 2.306-1.346.562-2.586 1.401-3.66 2.484C.913 14.391.913 18.051.913 20.994v1.775l1.305-1.387c.266.93.652 1.807 1.145 2.615H5.06c-.833-1.114-1.419-2.426-1.68-3.848l1.913-2.03-.985 3.091 1.74-1.268c3.075-2.234 6.744-2.75 10.91-1.529 1.805.532 3.56.039 4.473-1.257l.104-.165c.091.498.141.998.141 1.496 0 1.563-.255 3.687-1.38 5.512h1.611c.776-1.563 1.181-3.432 1.181-5.512-.001-2.199-.786-4.421-2.184-6.274zM8.894 6.191c.123-1.002.578-1.949 1.23-2.97.025.05.054.097.084.144.264.398.713.625 1.199.605.217-.008.605.025 1.233.232.714.236 1.286.744 1.608 1.425s.349 1.442.079 2.149c-.173.445-.454.82-.806 1.109l-.408-.502-.002-.003c-.279-.341-.694-.535-1.134-.535-.335 0-.664.117-.925.33-.334.27-.514.66-.534 1.058-1.2-.541-1.8-1.643-1.628-3.041l.004-.001zm4.304 5.11l-.519.425c-.046.036-.095.053-.146.053-.066 0-.133-.03-.177-.085l-.111-.135c-.083-.1-.067-.25.034-.334l.51-.42-1.055-1.299c-.109-.133-.091-.33.044-.436.058-.048.126-.072.194-.072.091 0 .181.038.24.113l2.963 3.645c.109.135.09.33-.042.436-.039.029-.082.053-.126.063-.023.006-.045.009-.07.009-.09 0-.178-.04-.24-.113l-.295-.365-1.045.854c-.046.037-.1.055-.154.055-.068 0-.139-.03-.186-.09l-.477-.579c-.082-.102-.068-.252.035-.336l1.051-.857-.426-.533-.002.001zM7.753 4.866l-1.196-.075c-.255-.015-.45-.235-.435-.488l.09-1.401c.014-.245.216-.436.461-.436h.024l1.401.091c.123.006.236.06.317.152.083.094.123.21.116.336l-.007.101c-.32.567-.585 1.134-.773 1.72h.002zm12.524 11.481c-.565.805-1.687 1.081-2.924.718-3.886-1.141-7.396-.903-10.468.701l1.636-5.123-5.291 5.609c.099-3.762 2.453-6.966 5.758-8.311.471.373 1.034.66 1.673.841.16.044.322.074.48.102-.183.458-.119.997.21 1.407l.075.09c-.172.45-.105.975.221 1.374l.475.582c.266.325.659.513 1.079.513.321 0 .635-.111.886-.314l.285-.232c.174.074.367.113.566.113.113 0 .222-.01.33-.035.218-.05.424-.15.598-.291.623-.51.72-1.435.209-2.06l-1.67-2.056c.145-.117.281-.244.408-.381.135.037.271.078.4.12.266.097.533.198.795.315 1.005.445 1.954 1.1 2.771 1.897.029.03.059.055.085.083l.17.175c.038.039.076.079.111.12.079.085.16.175.239.267l.126.15c.045.053.086.104.13.16l.114.15c.04.051.079.102.117.154.838 1.149.987 2.329.404 3.157v.005zM7.719 4.115l-.835-.051.053-.835.834.051-.052.835z"/>
    </symbol>

  <!-- Github icon. Source: https://www.svgrepo.com/svg/35001/github; License: -->
  <symbol id="i-gh" viewBox="0 0 291.32 291.32" style="enable-background:new 0 0 291.32 291.32;" xml:space="preserve">
	  <path d="M145.66,0C65.219,0,0,65.219,0,145.66c0,80.45,65.219,145.66,145.66,145.66
		                               s145.66-65.21,145.66-145.66C291.319,65.219,226.1,0,145.66,0z M186.462,256.625c-0.838-11.398-1.775-25.518-1.83-31.235
		                               c-0.364-4.388-0.838-15.549-11.434-22.677c42.068-3.523,62.087-26.774,63.526-57.499c1.202-17.497-5.754-32.883-18.107-45.3
		                               c0.628-13.282-0.401-29.023-1.256-35.941c-9.486-2.731-31.608,8.949-37.79,13.947c-13.037-5.062-44.945-6.837-64.336,0
		                               c-13.747-9.668-29.396-15.64-37.926-13.974c-7.875,17.452-2.813,33.948-1.275,35.914c-10.142,9.268-24.289,20.675-20.447,44.572
		                               c6.163,35.04,30.816,53.94,70.508,58.564c-8.466,1.73-9.896,8.048-10.606,10.788c-26.656,10.997-34.275-6.791-37.644-11.425
		                               c-11.188-13.847-21.23-9.832-21.849-9.614c-0.601,0.218-1.056,1.092-0.992,1.511c0.564,2.986,6.655,6.018,6.955,6.263
		                               c8.257,6.154,11.316,17.27,13.2,20.438c11.844,19.473,39.374,11.398,39.638,11.562c0.018,1.702-0.191,16.032-0.355,27.184
		                               C64.245,245.992,27.311,200.2,27.311,145.66c0-65.365,52.984-118.348,118.348-118.348S264.008,80.295,264.008,145.66
		                               C264.008,196.668,231.69,239.992,186.462,256.625z"/>
    </symbol>

  <!-- Wiki icon. Source: https://www.svgrepo.com/svg/81140/wikipedia License: CC0 -->
  <symbol id="i-wiki" viewBox="0 0 458.723 458.723" style="enable-background:new 0 0 458.723 458.723;" xml:space="preserve">
    <path d="M455.724,93.489H367.32h-3v3v9.613v3h3h6.143c7.145,0,13.588,3.667,17.237,9.81
	           c3.648,6.143,3.786,13.555,0.368,19.829l-98.3,180.432l-44.769-106.727l42.169-77.382c8.727-16.014,25.477-25.962,43.714-25.962
	           h1.992h3v-3v-9.613v-3h-3H247.47h-3v3v9.613v3h3h6.143c7.145,0,13.588,3.667,17.237,9.81c3.648,6.143,3.786,13.555,0.368,19.829
	           l-30.587,56.143L213.372,129.9c-1.976-4.71-1.487-9.852,1.341-14.105s7.38-6.693,12.488-6.693h6.988h3v-3v-9.613v-3h-3H128.46h-3v3
	           v9.613v3h3h1.454c20.857,0,39.546,12.428,47.615,31.661l40.277,96.018l-44.887,82.392L93.523,129.9
	           c-1.976-4.71-1.487-9.852,1.341-14.105s7.38-6.693,12.488-6.693h10.737h3v-3v-9.613v-3h-3H3H0v3v9.613v3h3h7.064
	           c20.857,0,39.547,12.428,47.615,31.661l91.526,218.191c1.601,3.816,5.313,6.282,9.458,6.282c3.804,0,7.163-1.998,8.986-5.344
	           l11.939-21.91l45.582-83.646l43.884,104.617c1.601,3.816,5.313,6.282,9.458,6.282c3.804,0,7.163-1.998,8.986-5.344l11.939-21.91
	           l110.58-202.919c8.727-16.014,25.477-25.962,43.714-25.962h1.992h3v-3v-9.613v-3h-2.999V93.489z"/>
    </symbol>

  <!-- Outside icon. Source: https://www.svgrepo.com/svg/35710/external License: CC0 -->
  <symbol id="i-outside" viewBox="0 0 194.818 194.818" style="enable-background:new 0 0 194.818 194.818;" xml:space="preserve">
	  <path d="M185.818,2.161h-57.04c-4.971,0-9,4.029-9,9s4.029,9,9,9h35.312l-86.3,86.3c-3.515,3.515-3.515,9.213,0,12.728
		         c1.758,1.757,4.061,2.636,6.364,2.636s4.606-0.879,6.364-2.636l86.3-86.3v35.313c0,4.971,4.029,9,9,9s9-4.029,9-9v-57.04
		         C194.818,6.19,190.789,2.161,185.818,2.161z"/>
	  <path d="M149,77.201c-4.971,0-9,4.029-9,9v88.456H18v-122h93.778c4.971,0,9-4.029,9-9s-4.029-9-9-9H9c-4.971,0-9,4.029-9,9v140
		         c0,4.971,4.029,9,9,9h140c4.971,0,9-4.029,9-9V86.201C158,81.23,153.971,77.201,149,77.201z"/>
  </symbol>

  <!-- Calendar icon. Source: https://www.svgrepo.com/svg/16408/event-date-and-time-symbol; License: CC0 -->
  <symbol id="i-date" viewBox="0 0 612 612" style="enable-background:new 0 0 612 612;" xml:space="preserve">
					<path d="M479.808,326.519c-73.02,0-132.228,59.227-132.228,132.229c0,72.983,59.208,132.174,132.228,132.174
						c72.984,0,132.192-59.19,132.192-132.174C612,385.745,552.792,326.519,479.808,326.519z M488.292,556.469v-11.415
						c0-4.722-3.808-8.538-8.484-8.538c-4.722,0-8.521,3.826-8.521,8.538v11.415c-47.341-4.07-85.158-41.896-89.229-89.229h11.451
						c4.677,0,8.502-3.809,8.502-8.484c0-4.758-3.825-8.521-8.502-8.521h-11.451c4.07-47.351,41.896-85.14,89.229-89.229v11.433
						c0,4.704,3.809,8.521,8.521,8.521c4.677,0,8.484-3.826,8.484-8.521v-11.433c47.359,4.089,85.177,41.878,89.229,89.229h-11.451
						c-4.703,0-8.502,3.771-8.502,8.521c0,4.686,3.808,8.484,8.502,8.484h11.451C573.478,514.572,535.651,552.389,488.292,556.469z"
						/>
					<path d="M529.066,445.966h-30.671c-4.089-5.897-10.881-9.813-18.588-9.813c-0.117,0-0.244,0.036-0.38,0.036l-27.948-39.346
						c-4.07-5.726-12.048-7.055-17.792-3.003c-5.726,4.089-7.101,12.084-3.003,17.828l27.967,39.363
						c-0.859,2.415-1.41,4.984-1.41,7.725c0,12.464,10.085,22.549,22.566,22.549c7.707,0,14.535-3.88,18.588-9.796h30.671
						c7.037,0,12.763-5.688,12.763-12.744C541.829,451.674,536.104,445.966,529.066,445.966z"/>
					<path d="M127.245,195.593c23.137,0,41.86-18.741,41.86-41.851V62.93c0-23.119-18.723-41.851-41.86-41.851
						c-23.119,0-41.833,18.732-41.833,41.851v90.821C85.412,176.852,104.125,195.593,127.245,195.593z"/>
					<path d="M383.578,195.593c23.138,0,41.86-18.741,41.86-41.851V62.93c0-23.119-18.723-41.851-41.86-41.851
						c-23.101,0-41.832,18.732-41.832,41.851v90.821C341.736,176.852,360.478,195.593,383.578,195.593z"/>
					<path d="M183.957,311.793c0-11.948-9.66-21.626-21.636-21.626h-40.105c-11.948,0-21.653,9.678-21.653,21.626v40.088
						c0,11.966,9.705,21.672,21.653,21.672h40.105c11.966,0,21.636-9.706,21.636-21.672V311.793z"/>
					<path d="M297.127,311.82c0-11.948-9.687-21.617-21.608-21.617h-40.124c-11.948,0-21.618,9.669-21.618,21.617v40.097
						c0,11.93,9.669,21.636,21.618,21.636h40.124c11.93,0,21.608-9.706,21.608-21.636V311.82z"/>
					<path d="M348.548,290.167c-11.967,0-21.654,9.678-21.654,21.626v40.088c0,10.826,8.068,19.365,18.416,20.984
						c15.864-24.711,38.332-44.719,64.934-57.653v-3.419c0-11.948-9.669-21.626-21.636-21.626H348.548z"/>
					<path d="M122.225,398.833c-11.948,0-21.654,9.669-21.654,21.617v40.105c0,11.948,9.706,21.617,21.654,21.617h40.124
						c11.948,0,21.608-9.669,21.608-21.617V420.45c0-11.948-9.66-21.617-21.608-21.617H122.225z"/>
					<path d="M275.473,398.851h-40.087c-11.948,0-21.617,9.688-21.617,21.636v40.069c0,11.948,9.669,21.617,21.617,21.617h40.087
						c11.93,0,21.618-9.669,21.618-21.617v-40.069C297.091,408.538,287.403,398.851,275.473,398.851z"/>
					<path d="M333.939,523.59H130.474c-35.022,0-63.523-28.5-63.523-63.486V247.592h376.958v55.608
						c11.551-2.659,23.518-4.215,35.899-4.215c10.619,0,20.984,1.095,31.033,3.094V102.204h-60.293v51.538
						c0,36.921-30.021,66.951-66.97,66.951c-36.93,0-66.95-30.029-66.95-66.951v-51.538H194.213v51.538
						c0,36.921-30.039,66.951-66.969,66.951c-36.913,0-66.951-30.029-66.951-66.951v-51.538H0v357.891
						c0,72.034,58.412,130.474,130.474,130.474h249.885c2.967,0,5.897-0.244,8.81-0.435
						C365.163,573.545,345.987,550.525,333.939,523.59z"/>
  </symbol>

  <!-- Menu icon. Source: https://www.svgrepo.com/svg/36538/menu, License: CC0 -->
  <symbol id="hamburger" viewBox="0 0 384.97 384.97" style="enable-background:new 0 0 384.97 384.97;" xml:space="preserve">
		<path d="M12.03,84.212h360.909c6.641,0,12.03-5.39,12.03-12.03c0-6.641-5.39-12.03-12.03-12.03H12.03
			C5.39,60.152,0,65.541,0,72.182C0,78.823,5.39,84.212,12.03,84.212z"/>
		<path d="M372.939,180.455H12.03c-6.641,0-12.03,5.39-12.03,12.03s5.39,12.03,12.03,12.03h360.909c6.641,0,12.03-5.39,12.03-12.03
			S379.58,180.455,372.939,180.455z"/>
		<path d="M372.939,300.758H12.03c-6.641,0-12.03,5.39-12.03,12.03c0,6.641,5.39,12.03,12.03,12.03h360.909
			c6.641,0,12.03-5.39,12.03-12.03C384.97,306.147,379.58,300.758,372.939,300.758z"/>
  </symbol>

  <!-- PDF icon. Source:  https://www.svgrepo.com/svg/1192/pdf-file-format-symbol License: CC0 -->
  <symbol id="i-pdf" viewBox="0 0 550.801 550.801" style="enable-background:new 0 0 550.801 550.801;"
	 xml:space="preserve">
	  <path d="M160.381,282.225c0-14.832-10.299-23.684-28.474-23.684c-7.414,0-12.437,0.715-15.071,1.432V307.6
		         c3.114,0.707,6.942,0.949,12.192,0.949C148.419,308.549,160.381,298.74,160.381,282.225z"/>
	  <path d="M272.875,259.019c-8.145,0-13.397,0.717-16.519,1.435v105.523c3.116,0.729,8.142,0.729,12.69,0.729
		         c33.017,0.231,54.554-17.946,54.554-56.474C323.842,276.719,304.215,259.019,272.875,259.019z"/>
	  <path d="M488.426,197.019H475.2v-63.816c0-0.398-0.063-0.799-0.116-1.202c-0.021-2.534-0.827-5.023-2.562-6.995L366.325,3.694
		         c-0.032-0.031-0.063-0.042-0.085-0.076c-0.633-0.707-1.371-1.295-2.151-1.804c-0.231-0.155-0.464-0.285-0.706-0.419
		         c-0.676-0.369-1.393-0.675-2.131-0.896c-0.2-0.056-0.38-0.138-0.58-0.19C359.87,0.119,359.037,0,358.193,0H97.2
		         c-11.918,0-21.6,9.693-21.6,21.601v175.413H62.377c-17.049,0-30.873,13.818-30.873,30.873v160.545
		         c0,17.043,13.824,30.87,30.873,30.87h13.224V529.2c0,11.907,9.682,21.601,21.6,21.601h356.4c11.907,0,21.6-9.693,21.6-21.601
		         V419.302h13.226c17.044,0,30.871-13.827,30.871-30.87v-160.54C519.297,210.838,505.47,197.019,488.426,197.019z M97.2,21.605
		         h250.193v110.513c0,5.967,4.841,10.8,10.8,10.8h95.407v54.108H97.2V21.605z M362.359,309.023c0,30.876-11.243,52.165-26.82,65.333
		         c-16.971,14.117-42.82,20.814-74.396,20.814c-18.9,0-32.297-1.197-41.401-2.389V234.365c13.399-2.149,30.878-3.346,49.304-3.346
		         c30.612,0,50.478,5.508,66.039,17.226C351.828,260.69,362.359,280.547,362.359,309.023z M80.7,393.499V234.365
		         c11.241-1.904,27.042-3.346,49.296-3.346c22.491,0,38.527,4.308,49.291,12.928c10.292,8.131,17.215,21.534,17.215,37.328
		         c0,15.799-5.25,29.198-14.829,38.285c-12.442,11.728-30.865,16.996-52.407,16.996c-4.778,0-9.1-0.243-12.435-0.723v57.67H80.7
		         V393.499z M453.601,523.353H97.2V419.302h356.4V523.353z M484.898,262.127h-61.989v36.851h57.913v29.674h-57.913v64.848h-36.593
		         V232.216h98.582V262.127z"/>
  </symbol>

  <!-- Heart icon. Source: https://www.svgrepo.com/svg/5233/heart, License: CC0 -->
  <symbol id="i-heart" x="0px" y="0px" viewBox="0 0 490.4 490.4" style="enable-background:new 0 0 490.4 490.4;" xml:space="preserve">
		<path d="M222.5,453.7c6.1,6.1,14.3,9.5,22.9,9.5c8.5,0,16.9-3.5,22.9-9.5L448,274c27.3-27.3,42.3-63.6,42.4-102.1
			       c0-38.6-15-74.9-42.3-102.2S384.6,27.4,346,27.4c-37.9,0-73.6,14.5-100.7,40.9c-27.2-26.5-63-41.1-101-41.1
			       c-38.5,0-74.7,15-102,42.2C15,96.7,0,133,0,171.6c0,38.5,15.1,74.8,42.4,102.1L222.5,453.7z M59.7,86.8
			       c22.6-22.6,52.7-35.1,84.7-35.1s62.2,12.5,84.9,35.2l7.4,7.4c2.3,2.3,5.4,3.6,8.7,3.6l0,0c3.2,0,6.4-1.3,8.7-3.6l7.2-7.2
			       c22.7-22.7,52.8-35.2,84.9-35.2c32,0,62.1,12.5,84.7,35.1c22.7,22.7,35.1,52.8,35.1,84.8s-12.5,62.1-35.2,84.8L251,436.4
			       c-2.9,2.9-8.2,2.9-11.2,0l-180-180c-22.7-22.7-35.2-52.8-35.2-84.8C24.6,139.6,37.1,109.5,59.7,86.8z"/>
  </symbol>

  <!-- Jupyter icon. Source: https://www.svgrepo.com/svg/306283/jupyter,
       License: CC0 (?) -->
  <symbol id="i-ipynb" width="24px" height="24px"
                             viewBox="0 0 24 24" xmlns="http://www.w3.org/2000/svg">

          <path d="M7.157 22.201A1.784 1.799 0 0 1 5.374 24a1.784 1.799 0 0
      1-1.784-1.799 1.784 1.799 0 0 1 1.784-1.799 1.784 1.799 0 0 1 1.783
      1.799zM20.582 1.427a1.415 1.427 0 0 1-1.415 1.428 1.415 1.427 0 0
      1-1.416-1.428A1.415 1.427 0 0 1 19.167 0a1.415 1.427 0 0 1 1.415 1.427zM4.992
      3.336A1.047 1.056 0 0 1 3.946 4.39a1.047 1.056 0 0 1-1.047-1.055A1.047 1.056 0 0
      1 3.946 2.28a1.047 1.056 0 0 1 1.046 1.056zm7.336 1.517c3.769 0 7.06 1.38 8.768
      3.424a9.363 9.363 0 0 0-3.393-4.547 9.238 9.238 0 0 0-5.377-1.728A9.238 9.238 0
      0 0 6.95 3.73a9.363 9.363 0 0 0-3.394 4.547c1.713-2.04 5.004-3.424
      8.772-3.424zm.001 13.295c-3.768 0-7.06-1.381-8.768-3.425a9.363 9.363 0 0 0 3.394
      4.547A9.238 9.238 0 0 0 12.33 21a9.238 9.238 0 0 0 5.377-1.729 9.363 9.363 0 0 0
      3.393-4.547c-1.712 2.044-5.003 3.425-8.772 3.425Z"/>
  </symbol>

  <!-- Generic "Document/attachment" symbol. Source: https://www.svgrepo.com/svg/41690/document, License: CC0 -->
  <symbol id="i-doc"  viewBox="0 0 231.306 231.306" xmlns:xlink="http://www.w3.org/1999/xlink" enable-background="new 0 0 231.306 231.306">
    <path d="M229.548,67.743L163.563,1.757C162.438,0.632,160.912,0,159.32,0H40.747C18.279,0,0,18.279,0,40.747v149.813   c0,22.468,18.279,40.747,40.747,40.747h149.813c22.468,0,40.747-18.279,40.747-40.747V71.985   C231.306,70.394,230.673,68.868,229.548,67.743z M164.32,19.485l47.5,47.5h-47.5V19.485z M190.559,219.306H40.747   C24.896,219.306,12,206.41,12,190.559V40.747C12,24.896,24.896,12,40.747,12H152.32v60.985c0,3.313,2.687,6,6,6h60.985v111.574   C219.306,206.41,206.41,219.306,190.559,219.306z"/>
    <path d="m103.826,52.399c-5.867-5.867-13.667-9.098-21.964-9.098s-16.097,3.231-21.964,9.098c-5.867,5.867-9.098,13.667-9.098,21.964 0,8.297 3.231,16.097 9.098,21.964l61.536,61.536c7.957,7.956 20.9,7.954 28.855,0 7.955-7.956 7.955-20.899 0-28.855l-60.928-60.926c-2.343-2.343-6.143-2.343-8.485,0-2.343,2.343-2.343,6.142 0,8.485l60.927,60.927c3.276,3.276 3.276,8.608 0,11.884s-8.607,3.276-11.884,0l-61.536-61.535c-3.601-3.601-5.583-8.388-5.583-13.479 0-5.092 1.983-9.879 5.583-13.479 7.433-7.433 19.525-7.433 26.958,0l64.476,64.476c11.567,11.567 11.567,30.388 0,41.955-5.603,5.603-13.053,8.689-20.977,8.689s-15.374-3.086-20.977-8.689l-49.573-49.574c-2.343-2.343-6.143-2.343-8.485,0-2.343,2.343-2.343,6.142 0,8.485l49.573,49.573c7.87,7.87 18.333,12.204 29.462,12.204s21.593-4.334 29.462-12.204 12.204-18.333 12.204-29.463c0-11.129-4.334-21.593-12.204-29.462l-64.476-64.476z"/>
  </symbol>

 <!-- Generic "Play" symbol. Source:https://www.svgrepo.com/svg/38645/play License: CC0 -->
  <symbol id="i-play" viewBox="0 0 485 485" style="enable-background:new 0 0 485 485;" xml:space="preserve">
	  <path d="M413.974,71.026C368.171,25.225,307.274,0,242.5,0S116.829,25.225,71.026,71.026C25.225,116.829,0,177.726,0,242.5
		         s25.225,125.671,71.026,171.474C116.829,459.775,177.726,485,242.5,485s125.671-25.225,171.474-71.026
		         C459.775,368.171,485,307.274,485,242.5S459.775,116.829,413.974,71.026z M242.5,455C125.327,455,30,359.673,30,242.5
		         S125.327,30,242.5,30S455,125.327,455,242.5S359.673,455,242.5,455z"/>
	  <polygon points="181.062,336.575 343.938,242.5 181.062,148.425 	"/>
  </symbol>

  <!-- Download symbol. Source: https://www.svgrepo.com/svg/26332/download License: CC0 -->

  <symbol id="i-download" xmlns="http://www.w3.org/2000/svg" xmlns:xlink="http://www.w3.org/1999/xlink"
	 viewBox="0 0 211.293 211.293" style="enable-background:new 0 0 211.293 211.293;" xml:space="preserve">
	  <path d="M176.777,54.027H133.43c-4.143,0-7.5,3.357-7.5,7.5c0,4.142,3.357,7.5,7.5,7.5h35.848v127.266H42.016V69.027h35.844
		         c4.143,0,7.5-3.357,7.5-7.5c0-4.143-3.357-7.5-7.5-7.5H34.516c-4.142,0-7.5,3.357-7.5,7.5v142.266c0,4.143,3.358,7.5,7.5,7.5
		         h142.262c4.143,0,7.5-3.357,7.5-7.5V61.527C184.277,57.385,180.92,54.027,176.777,54.027z"/>
	  <path d="M82.058,101.468c-2.929-2.929-7.678-2.93-10.606-0.001c-2.93,2.93-2.93,7.678-0.001,10.607l28.889,28.89
		         c1.407,1.407,3.314,2.197,5.304,2.197c1.989,0,3.896-0.79,5.303-2.196l28.891-28.89c2.93-2.929,2.93-7.678,0.001-10.606
		         c-2.929-2.929-7.678-2.93-10.606-0.001l-16.088,16.087V7.5c0-4.143-3.357-7.5-7.5-7.5s-7.5,3.357-7.5,7.5v110.054L82.058,101.468z" />
  </symbol>
</svg>
