<?xml version="1.0" encoding="UTF-8" standalone="no"?><svg xmlns="http://www.w3.org/2000/svg" xmlns:xlink="http://www.w3.org/1999/xlink" contentScriptType="application/ecmascript" contentStyleType="text/css" height="420px" preserveAspectRatio="none" style="width:818px;height:420px;" version="1.1" viewBox="0 0 818 420" width="818px" zoomAndPan="magnify"><defs><filter height="300%" id="f6ju7jzpycoi7" width="300%" x="-1" y="-1"><feGaussianBlur result="blurOut" stdDeviation="2.0"/><feColorMatrix in="blurOut" result="blurOut2" type="matrix" values="0 0 0 0 0 0 0 0 0 0 0 0 0 0 0 0 0 0 .4 0"/><feOffset dx="4.0" dy="4.0" in="blurOut2" result="blurOut3"/><feBlend in="SourceGraphic" in2="blurOut3" mode="normal"/></filter></defs><g><!--MD5=[0cf89cae4ddc4f406dee2c24a61c04d5]
cluster soft--><polygon fill="#FFFFFF" filter="url(#f6ju7jzpycoi7)" points="133,75,376,75,383,97.2969,393,97.2969,393,188,133,188,133,75" style="stroke:#000000;stroke-width:1.5;"/><line style="stroke:#000000;stroke-width:1.5;" x1="133" x2="383" y1="97.2969" y2="97.2969"/><text fill="#000000" font-family="sans-serif" font-size="14" font-weight="bold" lengthAdjust="spacing" textLength="237" x="137" y="89.9951">External programs ('backend')</text><!--MD5=[82a3c10cfc5417650ef2e1677f96fd32]
cluster packages--><polygon fill="#FFFFFF" filter="url(#f6ju7jzpycoi7)" points="258,228,392,228,399,250.2969,536,250.2969,536,341,258,341,258,228" style="stroke:#000000;stroke-width:1.5;"/><line style="stroke:#000000;stroke-width:1.5;" x1="258" x2="399" y1="250.2969" y2="250.2969"/><text fill="#000000" font-family="sans-serif" font-size="14" font-weight="bold" lengthAdjust="spacing" textLength="128" x="262" y="242.9951">LaTeX packages</text><!--MD5=[7aacbd02b143c903f4187f5174be7d8a]
entity bibtex--><polygon fill="#FEFECE" filter="url(#f6ju7jzpycoi7)" points="287,128,297,118,369,118,369,154.2969,359,164.2969,287,164.2969,287,128" style="stroke:#000000;stroke-width:1.5;"/><line style="stroke:#000000;stroke-width:1.5;" x1="359" x2="369" y1="128" y2="118"/><line style="stroke:#000000;stroke-width:1.5;" x1="287" x2="359" y1="128" y2="128"/><line style="stroke:#000000;stroke-width:1.5;" x1="359" x2="359" y1="128" y2="164.2969"/><text fill="#000000" font-family="sans-serif" font-size="14" lengthAdjust="spacing" textLength="42" x="302" y="150.9951">bibtex</text><!--MD5=[0c696ca78d33b343336d71294a2c0d4a]
entity biber--><polygon fill="#FEFECE" filter="url(#f6ju7jzpycoi7)" points="176.5,128,186.5,118,251.5,118,251.5,154.2969,241.5,164.2969,176.5,164.2969,176.5,128" style="stroke:#000000;stroke-width:1.5;"/><line style="stroke:#000000;stroke-width:1.5;" x1="241.5" x2="251.5" y1="128" y2="118"/><line style="stroke:#000000;stroke-width:1.5;" x1="176.5" x2="241.5" y1="128" y2="128"/><line style="stroke:#000000;stroke-width:1.5;" x1="241.5" x2="241.5" y1="128" y2="164.2969"/><text fill="#000000" font-family="sans-serif" font-size="14" lengthAdjust="spacing" textLength="35" x="191.5" y="150.9951">biber</text><!--MD5=[fa16d5671a41ded6606f422037c7cda8]
entity natbib--><polygon fill="#FEFECE" filter="url(#f6ju7jzpycoi7)" points="409.5,281,419.5,271,492.5,271,492.5,307.2969,482.5,317.2969,409.5,317.2969,409.5,281" style="stroke:#000000;stroke-width:1.5;"/><line style="stroke:#000000;stroke-width:1.5;" x1="482.5" x2="492.5" y1="281" y2="271"/><line style="stroke:#000000;stroke-width:1.5;" x1="409.5" x2="482.5" y1="281" y2="281"/><line style="stroke:#000000;stroke-width:1.5;" x1="482.5" x2="482.5" y1="281" y2="317.2969"/><text fill="#000000" font-family="sans-serif" font-size="14" lengthAdjust="spacing" textLength="43" x="424.5" y="303.9951">natbib</text><!--MD5=[5c58d88636a362d8418aa04842fe6dd0]
entity biblatex--><polygon fill="#FEFECE" filter="url(#f6ju7jzpycoi7)" points="281.5,281,291.5,271,374.5,271,374.5,307.2969,364.5,317.2969,281.5,317.2969,281.5,281" style="stroke:#000000;stroke-width:1.5;"/><line style="stroke:#000000;stroke-width:1.5;" x1="364.5" x2="374.5" y1="281" y2="271"/><line style="stroke:#000000;stroke-width:1.5;" x1="281.5" x2="364.5" y1="281" y2="281"/><line style="stroke:#000000;stroke-width:1.5;" x1="364.5" x2="364.5" y1="281" y2="317.2969"/><text fill="#000000" font-family="sans-serif" font-size="14" lengthAdjust="spacing" textLength="53" x="296.5" y="303.9951">biblatex</text><!--MD5=[cf485be6754b756c24a7ea792a0eef2c]
entity bib--><path d="M38.5,16 C38.5,6 110,6 110,6 C110,6 181.5,6 181.5,16 L181.5,41.2969 C181.5,51.2969 110,51.2969 110,51.2969 C110,51.2969 38.5,51.2969 38.5,41.2969 L38.5,16 " fill="#FEFECE" filter="url(#f6ju7jzpycoi7)" style="stroke:#000000;stroke-width:1.5;"/><path d="M38.5,16 C38.5,26 110,26 110,26 C110,26 181.5,26 181.5,16 " fill="none" style="stroke:#000000;stroke-width:1.5;"/><text fill="#000000" font-family="sans-serif" font-size="14" lengthAdjust="spacing" textLength="123" x="48.5" y="42.9951">Bibliography (.bib)</text><!--MD5=[ba77c6fb26eb914c79eca8462c7cfd6e]
entity tex--><polygon fill="#FEFECE" filter="url(#f6ju7jzpycoi7)" points="423,377,423,413.2969,633,413.2969,633,387,623,377,423,377" style="stroke:#000000;stroke-width:1.5;"/><path d="M623,377 L623,387 L633,387 " fill="#FEFECE" style="stroke:#000000;stroke-width:1.5;"/><text fill="#000000" font-family="sans-serif" font-size="14" lengthAdjust="spacing" textLength="190" x="433" y="399.9951">Manuscript (.tex document)</text><!--MD5=[574a74b05ee530937e95a7ffbe34a967]
entity style--><polygon fill="#FEFECE" filter="url(#f6ju7jzpycoi7)" points="477,123,477,159.2969,611,159.2969,611,133,601,123,477,123" style="stroke:#000000;stroke-width:1.5;"/><path d="M601,123 L601,133 L611,133 " fill="#FEFECE" style="stroke:#000000;stroke-width:1.5;"/><text fill="#000000" font-family="sans-serif" font-size="14" lengthAdjust="spacing" textLength="114" x="487" y="145.9951">Style description</text><path d="M426.5,16 L426.5,41.1328 A0,0 0 0 0 426.5,41.1328 L554.29,41.1328 L546.48,122.86 L562.29,41.1328 L693.5,41.1328 A0,0 0 0 0 693.5,41.1328 L693.5,26 L683.5,16 L426.5,16 A0,0 0 0 0 426.5,16 " fill="#FBFB77" filter="url(#f6ju7jzpycoi7)" style="stroke:#A80036;stroke-width:1.0;"/><path d="M683.5,16 L683.5,26 L693.5,26 L683.5,16 " fill="#FBFB77" style="stroke:#A80036;stroke-width:1.0;"/><text fill="#000000" font-family="sans-serif" font-size="13" lengthAdjust="spacing" textLength="143" x="432.5" y="33.0669">Package-specific (e.g.,</text><text fill="#000000" font-family="sans-serif" font-size="13" font-weight="bold" lengthAdjust="spacing" textLength="29" x="579.5" y="33.0669">.bst</text><text fill="#000000" font-family="sans-serif" font-size="13" lengthAdjust="spacing" textLength="66" x="612.5" y="33.0669">for natbib)</text><path d="M217,16 L217,24.5 L181.61,28.5 L217,32.5 L217,41.1328 A0,0 0 0 0 217,41.1328 L391,41.1328 A0,0 0 0 0 391,41.1328 L391,26 L381,16 L217,16 A0,0 0 0 0 217,16 " fill="#FBFB77" filter="url(#f6ju7jzpycoi7)" style="stroke:#A80036;stroke-width:1.0;"/><path d="M381,16 L381,26 L391,26 L381,16 " fill="#FBFB77" style="stroke:#A80036;stroke-width:1.0;"/><text fill="#000000" font-family="sans-serif" font-size="13" lengthAdjust="spacing" textLength="153" x="223" y="33.0669">Keeps bibliography data</text><path d="M6,281.5 L6,306.6328 L234,306.6328 L234,291.5 L224,281.5 L6,281.5 " fill="#FBFB77" filter="url(#f6ju7jzpycoi7)" style="stroke:#A80036;stroke-width:1.0;"/><path d="M224,281.5 L224,291.5 L234,291.5 L224,281.5 " fill="#FBFB77" style="stroke:#A80036;stroke-width:1.0;"/><text fill="#000000" font-family="sans-serif" font-size="13" lengthAdjust="spacing" textLength="207" x="12" y="298.5669">An interface - processes the .bib</text><path d="M563,281.5 L563,306.6328 L809,306.6328 L809,291.5 L799,281.5 L563,281.5 " fill="#FBFB77" filter="url(#f6ju7jzpycoi7)" style="stroke:#A80036;stroke-width:1.0;"/><path d="M799,281.5 L799,291.5 L809,291.5 L799,281.5 " fill="#FBFB77" style="stroke:#A80036;stroke-width:1.0;"/><text fill="#000000" font-family="sans-serif" font-size="13" lengthAdjust="spacing" textLength="225" x="569" y="298.5669">format citations and bibliographies.</text><!--MD5=[7661e9ac7ede7b4bd1a8c60bf2e7ea6e]
link bib to soft--><path d="M116.05,51.07 C120.42,66.645 126.41,87.9975 131.425,105.8763 C131.7384,106.9937 132.0481,108.0975 132.3533,109.1855 C132.5058,109.7296 132.6573,110.2696 132.8076,110.8054 C132.8452,110.9394 132.8827,111.0731 132.9201,111.2065 " fill="none" id="bib-to-soft" style="stroke:#A80036;stroke-width:1.0;"/><polygon fill="#A80036" points="132.9201,111.2065,134.3408,101.4606,131.5698,106.3923,126.6381,103.6212,132.9201,111.2065" style="stroke:#A80036;stroke-width:1.0;"/><!--MD5=[31451ab0c8ddadbe98b231395610d800]
link bibtex to natbib--><path d="M349.41,164.13 C362.16,177.63 378.46,195.42 392,212 C406.39,229.61 421.47,250.35 432.78,266.44 " fill="none" id="bibtex-to-natbib" style="stroke:#A80036;stroke-width:1.0;"/><polygon fill="#A80036" points="435.86,270.85,433.9735,261.1835,432.9917,266.7545,427.4207,265.7727,435.86,270.85" style="stroke:#A80036;stroke-width:1.0;"/><!--MD5=[f33ad7bd53ed1f3211529f4bd0e875aa]
link bibtex to biblatex--><path d="M328,164.28 C328,191.16 328,236.34 328,265.4 " fill="none" id="bibtex-to-biblatex" style="stroke:#A80036;stroke-width:1.0;"/><polygon fill="#A80036" points="328,270.63,332,261.63,328,265.63,324,261.63,328,270.63" style="stroke:#A80036;stroke-width:1.0;"/><!--MD5=[49d1c6b29a05b2e151ce74b405b479a7]
link biber to biblatex--><path d="M230.82,164.28 C251.36,191.49 286.07,237.47 307.97,266.48 " fill="none" id="biber-to-biblatex" style="stroke:#A80036;stroke-width:1.0;"/><polygon fill="#A80036" points="311.11,270.63,308.8716,261.0389,308.094,266.642,302.4909,265.8645,311.11,270.63" style="stroke:#A80036;stroke-width:1.0;"/><!--MD5=[a5dbf0944cac023e94e2fc9dce275f1d]
link style to packages--><path d="M542.2,159.03 C541.17,168.7475 539.7869,181.7956 538.2869,195.9466 C537.5369,203.022 536.7577,210.3732 535.9788,217.7216 C535.784,219.5587 535.5893,221.3956 535.3951,223.228 C535.298,224.1442 535.201,225.0593 535.1042,225.9727 C535.0558,226.4294 535.0074,226.8857 534.9591,227.3415 " fill="none" id="style-to-packages" style="stroke:#A80036;stroke-width:1.0;"/><polygon fill="#A80036" points="534.9591,227.3415,539.8854,218.8132,535.4861,222.3693,531.93,217.97,534.9591,227.3415" style="stroke:#A80036;stroke-width:1.0;"/><!--MD5=[c3b35066a2c9662344fd9b2998580c58]
link packages to tex--><path d="M528,341.2879 C528,341.4186 528,341.5493 528,341.68 C528,343.7713 528,345.8693 528,347.9591 C528,356.3181 528,364.545 528,371.68 " fill="none" id="packages-to-tex" style="stroke:#A80036;stroke-width:1.0;"/><polygon fill="#A80036" points="528,376.79,532,367.79,528,371.79,524,367.79,528,376.79" style="stroke:#A80036;stroke-width:1.0;"/><!--MD5=[91c6af175b8816cbbb8b81bf90a6a0e9]
link soft to GMN23--><path d="M134.5287,188.5272 C134.4975,188.7511 134.4663,188.9755 134.4351,189.2002 C133.9351,192.7958 133.4211,196.4916 132.8988,200.2475 C128.72,230.295 124.005,264.195 121.6,281.5 " fill="none" id="soft-GMN23" style="stroke:#A80036;stroke-width:1.0;stroke-dasharray:7.0,7.0;"/><!--MD5=[30f78a8c378b27f99c585b0bd04aa8bd]
link GMN26 to packages--><path d="M562.74,294 C557.05,294 551.3625,294 545.6763,294 C542.8331,294 539.9903,294 537.1477,294 C536.7923,294 536.437,294 536.0817,294 " fill="none" id="GMN26-packages" style="stroke:#A80036;stroke-width:1.0;stroke-dasharray:7.0,7.0;"/><!--MD5=[a880acc95131de52cdf8510117e465b5]
@startuml
database bib as "Bibliography (.bib)" 
file tex as "Manuscript (.tex document)"
folder soft as "External programs ('backend')" {
        node bibtex
        node biber
}

folder packages as "LaTeX packages" {
        node natbib
        node biblatex
}

file style as "Style description"
note top of style: Package-specific (e.g., <b>.bst</b> for natbib)

bib - -> soft
bibtex - -> natbib
bibtex - -> biblatex
biber - -> biblatex
style - -> packages
packages - -> tex

note right of bib : Keeps bibliography data
note bottom of soft: An interface - processes the .bib
note left of packages: format citations and bibliographies.
@enduml

PlantUML version 1.2021.00(Sun Jan 10 11:25:05 CET 2021)
(GPL source distribution)
Java Runtime: OpenJDK Runtime Environment
JVM: OpenJDK 64-Bit Server VM
Default Encoding: UTF-8
Language: en
Country: US
--></g></svg>