<?xml version="1.0" encoding="UTF-8" standalone="no"?><svg xmlns="http://www.w3.org/2000/svg" xmlns:xlink="http://www.w3.org/1999/xlink" contentScriptType="application/ecmascript" contentStyleType="text/css" height="650px" preserveAspectRatio="none" style="width:954px;height:650px;" version="1.1" viewBox="0 0 954 650" width="954px" zoomAndPan="magnify"><defs><filter height="300%" id="fn7dtcux6u8mk" width="300%" x="-1" y="-1"><feGaussianBlur result="blurOut" stdDeviation="2.0"/><feColorMatrix in="blurOut" result="blurOut2" type="matrix" values="0 0 0 0 0 0 0 0 0 0 0 0 0 0 0 0 0 0 .4 0"/><feOffset dx="4.0" dy="4.0" in="blurOut2" result="blurOut3"/><feBlend in="SourceGraphic" in2="blurOut3" mode="normal"/></filter></defs><g><!--MD5=[d2b2150926e44fb56002e074f322f437]
cluster Docs--><polygon fill="#FFFFFF" filter="url(#fn7dtcux6u8mk)" points="316,6,436,6,443,28.2969,570,28.2969,570,103,316,103,316,6" style="stroke:#000000;stroke-width:1.5;"/><line style="stroke:#000000;stroke-width:1.5;" x1="316" x2="443" y1="28.2969" y2="28.2969"/><text fill="#000000" font-family="sans-serif" font-size="14" font-weight="bold" lengthAdjust="spacing" textLength="114" x="320" y="20.9951">Incoming docs</text><!--MD5=[eb379e8db81a43cd219036e0fd11522d]
cluster Zotero--><polygon fill="#FFFFFF" filter="url(#fn7dtcux6u8mk)" points="169,127,291,127,298,149.2969,628,149.2969,628,445,169,445,169,127" style="stroke:#000000;stroke-width:1.5;"/><line style="stroke:#000000;stroke-width:1.5;" x1="169" x2="298" y1="149.2969" y2="149.2969"/><text fill="#000000" font-family="sans-serif" font-size="14" font-weight="bold" lengthAdjust="spacing" textLength="116" x="173" y="141.9951">Zotero system</text><!--MD5=[8fcab3a7d89caac9c2b25d1dd5c5b4a3]
cluster docs--><polygon fill="#FFFFFF" filter="url(#fn7dtcux6u8mk)" points="407,485,500,485,507,507.2969,937,507.2969,937,572,407,572,407,485" style="stroke:#000000;stroke-width:1.5;"/><line style="stroke:#000000;stroke-width:1.5;" x1="407" x2="507" y1="507.2969" y2="507.2969"/><text fill="#000000" font-family="sans-serif" font-size="14" font-weight="bold" lengthAdjust="spacing" textLength="87" x="411" y="499.9951">Manuscript</text><!--MD5=[eb72d209dad5f5a5c407980cb7d07d1f]
cluster dropbox--><polygon fill="#FFFFFF" filter="url(#fn7dtcux6u8mk)" points="166,477,353,477,360,499.2969,363,499.2969,363,580,166,580,166,477" style="stroke:#000000;stroke-width:1.5;"/><line style="stroke:#000000;stroke-width:1.5;" x1="166" x2="360" y1="499.2969" y2="499.2969"/><text fill="#000000" font-family="sans-serif" font-size="14" font-weight="bold" lengthAdjust="spacing" textLength="181" x="170" y="491.9951">Dropbox folder (tablet)</text><!--MD5=[08af8945a84acfe1eabc0963aa87c412]
entity web--><path d="M454.6148,49.5887 C457.3699,43.5183 462.7212,43.9515 466.375,48.603 C468.9684,42.3065 474.6674,43.2086 477.8954,47.94 C480.7197,42.0252 485.4233,41.1544 489.5339,46.6252 C492.9853,42.5295 497.8848,41.8453 500.1792,47.8452 C503.669,41.5708 507.8459,41.6153 512.1453,47.0152 C516.6935,40.7085 521.7565,42.1076 524.8418,48.4801 C528.4039,43.3189 534.102,44.6239 536.6374,49.667 C539.9297,44.4107 543.7325,45.0634 546.5137,50.1548 C556.4308,51.4276 556.5933,57.0102 552.9468,64.4057 C558.4571,71.8506 554.821,79.4501 546.0202,80.8766 C543.4834,85.3505 539.7705,86.3477 536.4855,81.6549 C534.2651,87.883 529.9137,89.3412 524.6081,85.1832 C521.312,91.6065 516.4567,91.953 512.1579,86.2092 C510.3841,91.5985 504.9607,93.4809 500.9761,88.6211 C497.1674,94.1734 492.1641,93.3248 489.9123,87.152 C485.7332,92.2998 480.3545,90.02 478.6214,84.5508 C473.7717,90.9879 469.1597,89.5046 465.9396,82.959 C460.8449,86.1796 457.0457,85.5135 455.0803,79.3411 C445.9204,78.2953 445.1413,72.671 449.144,65.8384 C443.2786,59.3355 446.0966,51.2491 454.6148,49.5887 " fill="#FEFECE" filter="url(#fn7dtcux6u8mk)" style="stroke:#000000;stroke-width:1.5;"/><text fill="#000000" font-family="sans-serif" font-size="14" lengthAdjust="spacing" textLength="78" x="461" y="68.9951">Web pages</text><!--MD5=[b33bd656212286946e0f6485ee27f6f9]
entity PDF--><polygon fill="#FEFECE" filter="url(#fn7dtcux6u8mk)" points="331.5,46,331.5,82.2969,410.5,82.2969,410.5,56,400.5,46,331.5,46" style="stroke:#000000;stroke-width:1.5;"/><path d="M400.5,46 L400.5,56 L410.5,56 " fill="#FEFECE" style="stroke:#000000;stroke-width:1.5;"/><text fill="#000000" font-family="sans-serif" font-size="14" lengthAdjust="spacing" textLength="59" x="341.5" y="68.9951">PDF files</text><!--MD5=[f9ba5bf973e7832d2ce5ed59077b93f7]
entity DB--><path d="M434,278 C434,268 500,268 500,268 C500,268 566,268 566,278 L566,303.2969 C566,313.2969 500,313.2969 500,313.2969 C500,313.2969 434,313.2969 434,303.2969 L434,278 " fill="#FEFECE" filter="url(#fn7dtcux6u8mk)" style="stroke:#000000;stroke-width:1.5;"/><path d="M434,278 C434,288 500,288 500,288 C500,288 566,288 566,278 " fill="none" style="stroke:#000000;stroke-width:1.5;"/><text fill="#000000" font-family="sans-serif" font-size="14" lengthAdjust="spacing" textLength="112" x="444" y="304.9951">SQLite database</text><!--MD5=[2d9b7e8a409ccc7be562adfb5f2e12ce]
entity PDFs--><polygon fill="#FEFECE" filter="url(#fn7dtcux6u8mk)" points="185,373,231,373,238,394,353,394,353,428.5938,185,428.5938,185,373" style="stroke:#000000;stroke-width:1.5;"/><line style="stroke:#000000;stroke-width:1.5;" x1="185" x2="238" y1="394" y2="394"/><text fill="#000000" font-family="sans-serif" font-size="14" lengthAdjust="spacing" textLength="138" x="195" y="413.9951">PDF storage (folder)</text><!--MD5=[31833003d838d7afb805b8e743dbc430]
entity ffplug--><polygon fill="#FEFECE" filter="url(#fn7dtcux6u8mk)" points="434.5,172,444.5,162,565.5,162,565.5,198.2969,555.5,208.2969,434.5,208.2969,434.5,172" style="stroke:#000000;stroke-width:1.5;"/><line style="stroke:#000000;stroke-width:1.5;" x1="555.5" x2="565.5" y1="172" y2="162"/><line style="stroke:#000000;stroke-width:1.5;" x1="434.5" x2="555.5" y1="172" y2="172"/><line style="stroke:#000000;stroke-width:1.5;" x1="555.5" x2="555.5" y1="172" y2="208.2969"/><text fill="#000000" font-family="sans-serif" font-size="14" lengthAdjust="spacing" textLength="91" x="449.5" y="194.9951">Firefox plugin</text><!--MD5=[94f07d8c67d321181d862eb4bef2b2d5]
entity LOplug--><polygon fill="#FEFECE" filter="url(#fn7dtcux6u8mk)" points="388,388,398,378,612,378,612,414.2969,602,424.2969,388,424.2969,388,388" style="stroke:#000000;stroke-width:1.5;"/><line style="stroke:#000000;stroke-width:1.5;" x1="602" x2="612" y1="388" y2="378"/><line style="stroke:#000000;stroke-width:1.5;" x1="388" x2="602" y1="388" y2="388"/><line style="stroke:#000000;stroke-width:1.5;" x1="602" x2="602" y1="388" y2="424.2969"/><text fill="#000000" font-family="sans-serif" font-size="14" lengthAdjust="spacing" textLength="184" x="403" y="410.9951">LibreOffice/MS Word plugin</text><!--MD5=[2607c9dbba4f08c42623299863b54f80]
entity latex_doc--><polygon fill="#FEFECE" filter="url(#fn7dtcux6u8mk)" points="654.5,520,654.5,556.2969,785.5,556.2969,785.5,530,775.5,520,654.5,520" style="stroke:#000000;stroke-width:1.5;"/><path d="M775.5,520 L775.5,530 L785.5,530 " fill="#FEFECE" style="stroke:#000000;stroke-width:1.5;"/><text fill="#000000" font-family="sans-serif" font-size="14" lengthAdjust="spacing" textLength="111" x="664.5" y="542.9951">Latex document</text><!--MD5=[15eec8ee8205576893f7e9bfdf34c51f]
entity g_doc--><polygon fill="#FEFECE" filter="url(#fn7dtcux6u8mk)" points="821,520,821,556.2969,921,556.2969,921,530,911,520,821,520" style="stroke:#000000;stroke-width:1.5;"/><path d="M911,520 L911,530 L921,530 " fill="#FEFECE" style="stroke:#000000;stroke-width:1.5;"/><text fill="#000000" font-family="sans-serif" font-size="14" lengthAdjust="spacing" textLength="80" x="831" y="542.9951">Google doc</text><!--MD5=[a2e7d89d32c382d045d8391e54fc8fa0]
entity LO_doc--><polygon fill="#FEFECE" filter="url(#fn7dtcux6u8mk)" points="423,520,423,556.2969,619,556.2969,619,530,609,520,423,520" style="stroke:#000000;stroke-width:1.5;"/><path d="M609,520 L609,530 L619,530 " fill="#FEFECE" style="stroke:#000000;stroke-width:1.5;"/><text fill="#000000" font-family="sans-serif" font-size="14" lengthAdjust="spacing" textLength="176" x="433" y="542.9951">LibreOffice / MS Word doc</text><!--MD5=[cb98fd5d2c3c20fa2dd840d6d44d53b5]
entity PDF_copy--><polygon fill="#FEFECE" filter="url(#fn7dtcux6u8mk)" points="221.5,520,221.5,556.2969,316.5,556.2969,316.5,530,306.5,520,221.5,520" style="stroke:#000000;stroke-width:1.5;"/><path d="M306.5,520 L306.5,530 L316.5,530 " fill="#FEFECE" style="stroke:#000000;stroke-width:1.5;"/><text fill="#000000" font-family="sans-serif" font-size="14" lengthAdjust="spacing" textLength="75" x="231.5" y="542.9951">PDF (copy)</text><!--MD5=[cf485be6754b756c24a7ea792a0eef2c]
entity bib--><polygon fill="#FEFECE" filter="url(#fn7dtcux6u8mk)" points="657.5,383,657.5,419.2969,782.5,419.2969,782.5,393,772.5,383,657.5,383" style="stroke:#000000;stroke-width:1.5;"/><path d="M772.5,383 L772.5,393 L782.5,393 " fill="#FEFECE" style="stroke:#000000;stroke-width:1.5;"/><text fill="#000000" font-family="sans-serif" font-size="14" lengthAdjust="spacing" textLength="105" x="667.5" y="405.9951">Bibtex file (.bib)</text><path d="M644.5,278 L644.5,303.1328 A0,0 0 0 0 644.5,303.1328 L742.79,303.1328 L724.76,382.79 L750.79,303.1328 L855.5,303.1328 A0,0 0 0 0 855.5,303.1328 L855.5,288 L845.5,278 L644.5,278 A0,0 0 0 0 644.5,278 " fill="#FBFB77" filter="url(#fn7dtcux6u8mk)" style="stroke:#A80036;stroke-width:1.0;"/><path d="M845.5,278 L845.5,288 L855.5,288 L845.5,278 " fill="#FBFB77" style="stroke:#A80036;stroke-width:1.0;"/><text fill="#000000" font-family="sans-serif" font-size="13" lengthAdjust="spacing" textLength="190" x="650.5" y="295.0669">Auto-export on every change.</text><path d="M6,616 L6,641.1328 L354,641.1328 L354,626 L344,616 L6,616 " fill="#FBFB77" filter="url(#fn7dtcux6u8mk)" style="stroke:#A80036;stroke-width:1.0;"/><path d="M344,616 L344,626 L354,626 L344,616 " fill="#FBFB77" style="stroke:#A80036;stroke-width:1.0;"/><text fill="#000000" font-family="sans-serif" font-size="13" lengthAdjust="spacing" textLength="327" x="12" y="633.0669">Send/retrieve files (with annotations) upon request.</text><path d="M522.5,616 L522.5,641.1328 A0,0 0 0 0 522.5,641.1328 L917.5,641.1328 A0,0 0 0 0 917.5,641.1328 L917.5,626 L907.5,616 L724,616 L720,556.06 L716,616 L522.5,616 A0,0 0 0 0 522.5,616 " fill="#FBFB77" filter="url(#fn7dtcux6u8mk)" style="stroke:#A80036;stroke-width:1.0;"/><path d="M907.5,616 L907.5,626 L917.5,626 L907.5,616 " fill="#FBFB77" style="stroke:#A80036;stroke-width:1.0;"/><text fill="#000000" font-family="sans-serif" font-size="13" lengthAdjust="spacing" textLength="374" x="528.5" y="633.0669">Edit using my favorite editor (supporting many cool things)</text><!--MD5=[0dfd01774cb7af5a1455324f00f02b19]
link DB to PDFs--><path d="M449.29,315.32 C414.67,331.58 368.56,353.24 331.64,370.58 " fill="none" id="DB-PDFs" style="stroke:#A80036;stroke-width:1.0;"/><polygon fill="#A80036" points="326.72,372.89,336.5667,372.6816,331.2451,370.7631,333.1636,365.4415,326.72,372.89" style="stroke:#A80036;stroke-width:1.0;"/><polygon fill="#A80036" points="454.09,313.07,444.2428,313.2529,449.5594,315.1852,447.6272,320.5018,454.09,313.07" style="stroke:#A80036;stroke-width:1.0;"/><!--MD5=[831e1bc6eb75b18256d2ccc1ec33ce8d]
link PDF to PDFs--><path d="M365.8,82.07 C349.63,135.2 300,298.17 278.79,367.86 " fill="none" id="PDF-to-PDFs" style="stroke:#A80036;stroke-width:1.0;"/><polygon fill="#A80036" points="277.31,372.71,283.758,365.2653,278.7664,367.9268,276.1049,362.9351,277.31,372.71" style="stroke:#A80036;stroke-width:1.0;"/><!--MD5=[ccb9a7fa694b49c27ccd30754510adb1]
link PDFs to PDF_copy--><path d="M269,434.56 C269,459.46 269,493.14 269,514.96 " fill="none" id="PDFs-PDF_copy" style="stroke:#A80036;stroke-width:1.0;"/><polygon fill="#A80036" points="269,519.97,273,510.97,269,514.97,265,510.97,269,519.97" style="stroke:#A80036;stroke-width:1.0;"/><polygon fill="#A80036" points="269,429.32,265,438.32,269,434.32,273,438.32,269,429.32" style="stroke:#A80036;stroke-width:1.0;"/><!--MD5=[8c38b538cfda55bd04888b8508d0646e]
link PDF to ffplug--><path d="M389.48,82.05 C411.04,101.94 446.91,135.03 471.92,158.09 " fill="none" id="PDF-to-ffplug" style="stroke:#A80036;stroke-width:1.0;"/><polygon fill="#A80036" points="475.83,161.71,471.9255,152.6682,472.1543,158.3204,466.5021,158.5492,475.83,161.71" style="stroke:#A80036;stroke-width:1.0;"/><!--MD5=[042243885f7b4940f9962ecb5f22f014]
link web to ffplug--><path d="M500,92.27 C500,111.46 500,137.07 500,156.35 " fill="none" id="web-ffplug" style="stroke:#A80036;stroke-width:1.0;"/><polygon fill="#A80036" points="500,161.61,504,152.61,500,156.61,496,152.61,500,161.61" style="stroke:#A80036;stroke-width:1.0;"/><polygon fill="#A80036" points="500,87.1,496,96.1,500,92.1,504,96.1,500,87.1" style="stroke:#A80036;stroke-width:1.0;"/><!--MD5=[45da82cccc1eb791f0bbb7d3a3a718fa]
link ffplug to DB--><path d="M500,213.32 C500,228.45 500,247.19 500,262.3 " fill="none" id="ffplug-DB" style="stroke:#A80036;stroke-width:1.0;"/><polygon fill="#A80036" points="500,267.69,504,258.69,500,262.69,496,258.69,500,267.69" style="stroke:#A80036;stroke-width:1.0;"/><polygon fill="#A80036" points="500,208.2,496,217.2,500,213.2,504,217.2,500,208.2" style="stroke:#A80036;stroke-width:1.0;"/><!--MD5=[2e1aeca05d1463403418b810bc150a1c]
link DB to bib--><path d="M543.73,313.07 C583.71,332.78 642.3,361.68 680.79,380.66 " fill="none" id="DB-to-bib" style="stroke:#A80036;stroke-width:1.0;"/><polygon fill="#A80036" points="685.38,382.93,679.0609,375.3756,680.8908,380.7283,675.5382,382.5583,685.38,382.93" style="stroke:#A80036;stroke-width:1.0;"/><!--MD5=[33c854830f12826a9f4a7e0a57a6df84]
link bib to latex_doc--><path d="M720,419.1 C720,443.31 720,487.62 720,514.49 " fill="none" id="bib-to-latex_doc" style="stroke:#A80036;stroke-width:1.0;"/><polygon fill="#A80036" points="720,519.61,724,510.61,720,514.61,716,510.61,720,519.61" style="stroke:#A80036;stroke-width:1.0;"/><!--MD5=[1118271b1b8b5d2818fc23c77df82e74]
link ffplug to g_doc--><path d="M565.61,190.77 C662.14,199.31 835.14,220.91 873,268 C931.71,341.02 897.18,464.78 879.49,514.92 " fill="none" id="ffplug-to-g_doc" style="stroke:#A80036;stroke-width:1.0;"/><polygon fill="#A80036" points="877.73,519.83,884.5336,512.7088,879.418,515.1236,877.0033,510.008,877.73,519.83" style="stroke:#A80036;stroke-width:1.0;"/><!--MD5=[eabd9ac66d2dbd99eae6c37dcf02c54f]
link DB to LOplug--><path d="M500,313.2 C500,330.38 500,354.48 500,372.93 " fill="none" id="DB-to-LOplug" style="stroke:#A80036;stroke-width:1.0;"/><polygon fill="#A80036" points="500,377.97,504,368.97,500,372.97,496,368.97,500,377.97" style="stroke:#A80036;stroke-width:1.0;"/><!--MD5=[1920279517c71045f274d4590bfcfa60]
link LOplug to LO_doc--><path d="M503.47,424.29 C507.36,449.32 513.64,489.7 517.54,514.73 " fill="none" id="LOplug-to-LO_doc" style="stroke:#A80036;stroke-width:1.0;"/><polygon fill="#A80036" points="518.33,519.82,520.8943,510.3108,517.559,514.8798,512.99,511.5445,518.33,519.82" style="stroke:#A80036;stroke-width:1.0;"/><!--MD5=[ed1a598708abc8741c49c339c22f15c3]
link dropbox to GMN32--><path d="M180,580.2279 C180,580.7505 180,581.2737 180,581.7972 C180,585.985 180,590.1901 180,594.2623 C180,602.4069 180,610.02 180,615.9 " fill="none" id="dropbox-GMN32" style="stroke:#A80036;stroke-width:1.0;stroke-dasharray:7.0,7.0;"/><!--MD5=[4457e2c1b9d1a1caf115fbcc3830559b]
@startuml
folder Docs as "Incoming docs" {
  cloud web as "Web pages"
  file PDF as "PDF files"
}

folder Zotero as "Zotero system" {
        database DB as "SQLite database"
        folder PDFs as "PDF storage (folder)"
        node ffplug as "Firefox plugin"
        node LOplug as "LibreOffice/MS Word plugin"
}

file bib as "Bibtex file (.bib)"

folder docs as "Manuscript" {
        file latex_doc as "Latex document"
        file g_doc as "Google doc"
        file LO_doc as "LibreOffice / MS Word doc"
}

folder dropbox as "Dropbox folder (tablet)" {
        file PDF_copy as "PDF (copy)"
}

DB <- -> PDFs
PDF - -> PDFs
PDFs <- -> PDF_copy
PDF - -> ffplug
web <- -> ffplug
ffplug <- -> DB

DB - -> bib
bib - -> latex_doc
ffplug - -> g_doc
DB - -> LOplug
LOplug - -> LO_doc

note top of bib: Auto-export on every change.
note bottom of dropbox: Send/retrieve files (with annotations) upon request.
note bottom of latex_doc: Edit using my favorite editor (supporting many cool things)
@enduml

PlantUML version 1.2021.00(Sun Jan 10 11:25:05 CET 2021)
(GPL source distribution)
Java Runtime: OpenJDK Runtime Environment
JVM: OpenJDK 64-Bit Server VM
Default Encoding: UTF-8
Language: en
Country: US
--></g></svg>