<?xml version="1.0" encoding="UTF-8" standalone="no"?><svg xmlns="http://www.w3.org/2000/svg" xmlns:xlink="http://www.w3.org/1999/xlink" contentScriptType="application/ecmascript" contentStyleType="text/css" height="240px" preserveAspectRatio="none" style="width:273px;height:240px;" version="1.1" viewBox="0 0 273 240" width="273px" zoomAndPan="magnify"><defs><filter height="300%" id="f10go3bhsj7l3j" width="300%" x="-1" y="-1"><feGaussianBlur result="blurOut" stdDeviation="2.0"/><feColorMatrix in="blurOut" result="blurOut2" type="matrix" values="0 0 0 0 0 0 0 0 0 0 0 0 0 0 0 0 0 0 .4 0"/><feOffset dx="4.0" dy="4.0" in="blurOut2" result="blurOut3"/><feBlend in="SourceGraphic" in2="blurOut3" mode="normal"/></filter></defs><g><!--MD5=[e2e02fbf9e601af9c8046d2e5b3d57ce]
entity v1--><polygon fill="#FEFECE" filter="url(#f10go3bhsj7l3j)" points="16,6,62,6,69,27,256,27,256,110.1875,16,110.1875,16,6" style="stroke:#000000;stroke-width:1.5;"/><line style="stroke:#000000;stroke-width:1.5;" x1="16" x2="69" y1="27" y2="27"/><text fill="#000000" font-family="sans-serif" font-size="14" font-weight="bold" lengthAdjust="spacing" textLength="78" x="26" y="46.9951">my_file.py</text><text fill="#000000" font-family="sans-serif" font-size="14" lengthAdjust="spacing" textLength="0" x="108" y="46.9951"/><text fill="#000000" font-family="sans-serif" font-size="14" lengthAdjust="spacing" textLength="5" x="140" y="46.9951">|</text><text fill="#000000" font-family="sans-serif" font-size="14" lengthAdjust="spacing" textLength="64" x="172" y="46.9951">commit 1</text><line style="stroke:#000000;stroke-width:1.0;" x1="17" x2="255" y1="50.2969" y2="50.2969"/><text fill="#000000" font-family="sans-serif" font-size="14" lengthAdjust="spacing" textLength="71" x="26" y="67.292">code here</text><line style="stroke:#000000;stroke-width:1.0;" x1="17" x2="255" y1="74.5938" y2="74.5938"/><text fill="#000000" font-family="sans-serif" font-size="14" font-weight="bold" lengthAdjust="spacing" textLength="81" x="26" y="91.5889">Comment:</text><text fill="#000000" font-family="sans-serif" font-size="14" lengthAdjust="spacing" textLength="70" x="111" y="91.5889">comment.</text><!--MD5=[01c9f1443dd0e1995dfde29bbc4e2853]
entity v2--><polygon fill="#FEFECE" filter="url(#f10go3bhsj7l3j)" points="96,170,142,170,149,191,176,191,176,233.5938,96,233.5938,96,170" style="stroke:#000000;stroke-width:1.5;"/><line style="stroke:#000000;stroke-width:1.5;" x1="96" x2="149" y1="191" y2="191"/><text fill="#000000" font-family="sans-serif" font-size="14" lengthAdjust="spacing" textLength="50" x="106" y="210.9951">ver two</text><line style="stroke:#000000;stroke-width:1.0;" x1="97" x2="175" y1="214.2969" y2="214.2969"/><!--MD5=[0c9c41c3a127f69cdc321579e1b5e109]
link v1 to v2--><path codeLine="14" d="M136,110.27 C136,128.26 136,148.1 136,164.62 " fill="none" id="v1-to-v2" style="stroke:#A80036;stroke-width:1.0;"/><polygon fill="#A80036" points="136,169.64,140,160.64,136,164.64,132,160.64,136,169.64" style="stroke:#A80036;stroke-width:1.0;"/><!--MD5=[fe75a3356c993f5857a705ed1c452892]
@startuml
folder v1 [
<b>my_file.py</b> \t | \t commit 1
- - -
code here
- - -
<b>Comment:</b> comment.
]

folder v2 [
ver two
- - -
]

v1 - -> v2
@enduml

PlantUML version 1.2021.00(Sun Jan 10 11:25:05 CET 2021)
(GPL source distribution)
Java Runtime: OpenJDK Runtime Environment
JVM: OpenJDK 64-Bit Server VM
Default Encoding: UTF-8
Language: en
Country: US
--></g></svg>